<?xml version="1.0" encoding="UTF-8" standalone="no"?>
<!DOCTYPE svg PUBLIC "-//W3C//DTD SVG 1.1//EN" "http://www.w3.org/Graphics/SVG/1.1/DTD/svg11.dtd">
<svg width="100%" height="100%" viewBox="0 0 300 300" version="1.1" xmlns="http://www.w3.org/2000/svg" xmlns:xlink="http://www.w3.org/1999/xlink" xml:space="preserve" xmlns:serif="http://www.serif.com/" style="fill-rule:evenodd;clip-rule:evenodd;stroke-linejoin:round;stroke-miterlimit:2;">
    <g id="Capa1">
        <g transform="matrix(0.578254,0,0,0.578254,17.1984,93.0878)">
            <text x="83.535px" y="205.083px" style="font-family:'Clarendon';font-size:42.72px;fill:white;">Coffee</text>
            <text x="250.059px" y="205.083px" style="font-family:'Clarendon';font-size:42.72px;fill:white;">Style</text>
        </g>
        <g id="coffee-cup_icon-icons.com_69402.svg" transform="matrix(0.377083,0,0,0.377083,153.634,132.559)">
            <g transform="matrix(1,0,0,1,-144.465,-144.465)">
                <clipPath id="_clip1">
                    <rect x="0" y="0" width="288.931" height="288.931"/>
                </clipPath>
                <g clip-path="url(#_clip1)">
                    <g>
                        <g>
                            <path d="M274.078,116.659C265.429,108.01 255.754,106.392 247.333,108.028L247.977,104.495C247.977,101.015 247.977,95.794 244.497,92.314C241.017,88.834 237.537,87.094 232.316,87.094L21.76,87.094C16.54,87.094 13.059,88.834 9.579,92.314C6.099,95.794 6.099,99.274 6.099,104.495L20.02,181.06C26.98,222.823 63.523,254.145 107.026,254.145L147.049,254.145C190.395,254.145 226.781,224.754 233.933,181.512C237.031,182.26 239.919,182.8 242.755,182.8C256.676,182.8 268.857,175.84 275.817,163.659C286.259,147.981 284.519,127.1 274.078,116.659ZM147.049,238.467L107.026,238.467C72.224,238.467 42.641,214.105 37.421,179.303L25.24,106.218L228.834,106.218L216.653,179.303C211.433,214.106 181.852,238.467 147.049,238.467ZM260.157,153.202C257.164,159.205 250.256,165.157 237.274,163.365L244.217,125.169C248.045,122.872 253.614,120.557 260.156,127.1C265.377,132.32 265.377,144.501 260.157,153.202Z" style="fill:white;fill-rule:nonzero;"/>
                            <path d="M77.444,54.015C77.444,64.456 82.664,71.416 82.664,73.156C84.404,74.896 86.144,76.636 89.624,76.636L94.844,76.636C100.064,73.156 100.064,67.935 98.324,64.455C98.324,64.455 94.844,59.235 94.844,54.014C94.844,48.793 98.324,43.573 98.324,43.573C98.324,43.573 103.544,34.872 103.544,24.432C103.544,13.992 98.324,7.031 98.324,5.291C94.844,0.071 89.623,0.071 86.143,1.811C80.923,5.291 80.923,10.512 82.663,13.992C82.663,13.992 86.143,19.212 86.143,24.433C86.143,29.654 82.663,34.874 82.663,34.874C82.663,34.874 77.444,43.574 77.444,54.015Z" style="fill:white;fill-rule:nonzero;"/>
                            <path d="M115.727,54.015C115.727,64.456 120.947,73.156 120.947,73.156C122.687,74.896 124.427,76.636 127.907,76.636L133.127,76.636C138.347,73.156 138.347,67.935 136.607,64.455C136.607,64.455 133.127,59.235 133.127,54.014C133.127,48.793 136.607,43.573 136.607,43.573C136.607,43.573 141.827,34.872 141.827,24.432C141.827,13.992 136.607,7.031 136.607,5.291C133.127,0.071 127.906,0.071 124.426,1.811C119.206,5.291 119.206,10.512 120.946,13.992C120.946,13.992 124.426,19.212 124.426,24.433C124.426,29.654 120.946,34.874 120.946,34.874C120.946,34.874 115.727,43.574 115.727,54.015Z" style="fill:white;fill-rule:nonzero;"/>
                            <path d="M154.01,54.015C154.01,64.456 159.23,73.156 159.23,73.156C160.97,74.896 162.71,76.636 166.19,76.636L171.41,76.636C176.63,73.156 176.63,67.935 174.89,64.455C174.89,64.455 171.41,59.235 171.41,54.014C171.41,48.793 174.89,43.573 174.89,43.573C174.89,43.573 180.11,34.872 180.11,24.432C180.11,13.992 174.89,7.031 174.89,5.291C171.41,0.071 167.93,-1.669 162.709,1.811C157.489,5.291 157.489,10.512 159.229,13.992C159.229,13.992 162.709,19.212 162.709,24.433C162.709,29.654 159.229,34.874 159.229,34.874C159.229,34.874 154.01,43.574 154.01,54.015Z" style="fill:white;fill-rule:nonzero;"/>
                            <path d="M241.016,271.53L14.8,271.53C9.58,271.53 6.099,275.01 6.099,280.231C6.099,285.451 9.579,288.932 14.8,288.932L241.016,288.932C246.236,288.932 249.717,285.452 249.717,280.231C249.716,275.01 246.236,271.53 241.016,271.53Z" style="fill:white;fill-rule:nonzero;"/>
                        </g>
                    </g>
                </g>
            </g>
        </g>
    </g>
</svg>
